<svg width="47" height="34" viewBox="0 0 47 34" fill="none" xmlns="http://www.w3.org/2000/svg">
<path d="M5.87079 12.7642C5.81484 12.5718 5.73624 12.4017 5.635 12.2541C5.53375 12.1038 5.40986 11.9773 5.26333 11.8745C5.11945 11.7691 4.95427 11.6887 4.76777 11.6333C4.58393 11.5779 4.38011 11.5503 4.15631 11.5503C3.73801 11.5503 3.37034 11.6531 3.05329 11.8587C2.7389 12.0643 2.49379 12.3635 2.31794 12.7563C2.1421 13.1464 2.05418 13.6236 2.05418 14.1877C2.05418 14.7518 2.14077 15.2316 2.31395 15.627C2.48712 16.0225 2.73224 16.3243 3.04929 16.5325C3.36634 16.7382 3.74068 16.841 4.17229 16.841C4.56395 16.841 4.89832 16.7724 5.1754 16.6354C5.45516 16.4956 5.6683 16.2992 5.81484 16.0462C5.96404 15.7931 6.03864 15.4939 6.03864 15.1486L6.39032 15.2H4.2802V13.9109H7.70516V14.9311C7.70516 15.6429 7.55329 16.2544 7.24956 16.7658C6.94583 17.2746 6.52754 17.6674 5.99468 17.9442C5.46182 18.2184 4.85169 18.3554 4.1643 18.3554C3.39698 18.3554 2.72292 18.188 2.1421 17.8532C1.56128 17.5158 1.10835 17.0374 0.783304 16.4179C0.460924 15.7957 0.299734 15.0576 0.299734 14.2035C0.299734 13.5471 0.395649 12.9619 0.587478 12.4479C0.781972 11.9312 1.05373 11.4936 1.40275 11.1351C1.75178 10.7766 2.15808 10.5037 2.62167 10.3165C3.08526 10.1294 3.58748 10.0358 4.12833 10.0358C4.59192 10.0358 5.02354 10.103 5.42318 10.2375C5.82283 10.3693 6.17718 10.5564 6.48624 10.799C6.79796 11.0415 7.0524 11.3301 7.24956 11.6649C7.44672 11.9971 7.57327 12.3635 7.62922 12.7642H5.87079Z" fill="#009254"/>
<path d="M8.97303 18.2447V12.1711H10.6236V13.2308H10.6875C10.7994 12.8538 10.9872 12.5691 11.251 12.3767C11.5148 12.1816 11.8185 12.0841 12.1622 12.0841C12.2475 12.0841 12.3394 12.0893 12.438 12.0999C12.5365 12.1104 12.6231 12.1249 12.6977 12.1434V13.6381C12.6178 13.6143 12.5072 13.5933 12.366 13.5748C12.2248 13.5564 12.0956 13.5471 11.9784 13.5471C11.7279 13.5471 11.5041 13.6012 11.307 13.7092C11.1125 13.8147 10.9579 13.9623 10.8434 14.1521C10.7315 14.3419 10.6755 14.5607 10.6755 14.8085V18.2447H8.97303Z" fill="#009254"/>
<path d="M16.0657 18.3633C15.4449 18.3633 14.9081 18.2329 14.4552 17.9719C14.0049 17.7083 13.6572 17.3418 13.4121 16.8726C13.167 16.4007 13.0444 15.8537 13.0444 15.2316C13.0444 14.6042 13.167 14.0559 13.4121 13.5867C13.6572 13.1148 14.0049 12.7484 14.4552 12.4874C14.9081 12.2238 15.4449 12.092 16.0657 12.092C16.6865 12.092 17.222 12.2238 17.6723 12.4874C18.1252 12.7484 18.4743 13.1148 18.7194 13.5867C18.9645 14.0559 19.087 14.6042 19.087 15.2316C19.087 15.8537 18.9645 16.4007 18.7194 16.8726C18.4743 17.3418 18.1252 17.7083 17.6723 17.9719C17.222 18.2329 16.6865 18.3633 16.0657 18.3633ZM16.0737 17.0585C16.3561 17.0585 16.5919 16.9794 16.7811 16.8212C16.9703 16.6604 17.1128 16.4416 17.2087 16.1648C17.3073 15.888 17.3566 15.573 17.3566 15.2198C17.3566 14.8665 17.3073 14.5515 17.2087 14.2747C17.1128 13.9979 16.9703 13.7791 16.7811 13.6183C16.5919 13.4575 16.3561 13.3771 16.0737 13.3771C15.7886 13.3771 15.5489 13.4575 15.3544 13.6183C15.1625 13.7791 15.0173 13.9979 14.9187 14.2747C14.8228 14.5515 14.7749 14.8665 14.7749 15.2198C14.7749 15.573 14.8228 15.888 14.9187 16.1648C15.0173 16.4416 15.1625 16.6604 15.3544 16.8212C15.5489 16.9794 15.7886 17.0585 16.0737 17.0585Z" fill="#009254"/>
<path d="M21.2511 18.2447L19.5806 12.1711H21.3031L22.2542 16.2518H22.3102L23.3013 12.1711H24.9918L25.9989 16.2281H26.0509L26.986 12.1711H28.7045L27.038 18.2447H25.2356L24.1805 14.425H24.1046L23.0495 18.2447H21.2511Z" fill="#009254"/>
<path d="M1.85435 26.6778H0L2.82549 18.5796H5.05551L7.877 26.6778H6.02265L3.97247 20.4302H3.90853L1.85435 26.6778ZM1.73846 23.4947H6.11857V24.8312H1.73846V23.4947Z" fill="#009254"/>
<path d="M12.0213 20.6041V21.8695H8.23269V20.6041H12.0213ZM9.09992 26.6778V20.1652C9.09992 19.725 9.18651 19.3599 9.35969 19.0699C9.53553 18.7799 9.77532 18.5625 10.079 18.4175C10.3828 18.2725 10.7278 18.2 11.1141 18.2C11.3752 18.2 11.6137 18.2198 11.8295 18.2593C12.048 18.2988 12.2105 18.3344 12.3171 18.3661L12.0133 19.6314C11.9467 19.6103 11.8641 19.5906 11.7656 19.5721C11.6696 19.5536 11.5711 19.5444 11.4698 19.5444C11.2194 19.5444 11.0449 19.6024 10.9463 19.7184C10.8477 19.8318 10.7984 19.9912 10.7984 20.1969V26.6778H9.09992Z" fill="#009254"/>
<path d="M13.0614 26.6778V20.6041H14.7119V21.6639H14.7759C14.8878 21.2869 15.0756 21.0022 15.3394 20.8098C15.6031 20.6147 15.9069 20.5172 16.2506 20.5172C16.3358 20.5172 16.4277 20.5224 16.5263 20.533C16.6249 20.5435 16.7115 20.558 16.7861 20.5765V22.0712C16.7062 22.0474 16.5956 22.0263 16.4544 22.0079C16.3132 21.9894 16.184 21.9802 16.0667 21.9802C15.8163 21.9802 15.5925 22.0342 15.3953 22.1423C15.2008 22.2478 15.0463 22.3954 14.9317 22.5852C14.8198 22.775 14.7639 22.9938 14.7639 23.2416V26.6778H13.0614Z" fill="#009254"/>
<path d="M17.6663 26.6778V20.6041H19.3688V26.6778H17.6663ZM18.5215 19.8212C18.2684 19.8212 18.0513 19.7382 17.8701 19.5721C17.6916 19.4034 17.6024 19.2017 17.6024 18.9671C17.6024 18.7351 17.6916 18.5361 17.8701 18.37C18.0513 18.2013 18.2684 18.117 18.5215 18.117C18.7747 18.117 18.9905 18.2013 19.169 18.37C19.3501 18.5361 19.4407 18.7351 19.4407 18.9671C19.4407 19.2017 19.3501 19.4034 19.169 19.5721C18.9905 19.7382 18.7747 19.8212 18.5215 19.8212Z" fill="#009254"/>
<path d="M23.5061 26.7964C22.8773 26.7964 22.3365 26.6646 21.8836 26.401C21.4333 26.1348 21.0869 25.7657 20.8445 25.2938C20.6047 24.822 20.4848 24.2789 20.4848 23.6647C20.4848 23.0426 20.606 22.4969 20.8485 22.0277C21.0936 21.5558 21.4413 21.188 21.8916 20.9244C22.3418 20.6582 22.8773 20.5251 23.4981 20.5251C24.0337 20.5251 24.5026 20.6213 24.9049 20.8137C25.3072 21.0062 25.6256 21.2764 25.86 21.6243C26.0945 21.9723 26.2237 22.3809 26.2477 22.8501H24.6411C24.5958 22.547 24.4759 22.3031 24.2814 22.1186C24.0896 21.9314 23.8378 21.8379 23.5261 21.8379C23.2623 21.8379 23.0319 21.909 22.8347 22.0514C22.6402 22.1911 22.4884 22.3954 22.3791 22.6643C22.2699 22.9332 22.2153 23.2587 22.2153 23.641C22.2153 24.0285 22.2686 24.358 22.3751 24.6295C22.4844 24.901 22.6376 25.108 22.8347 25.2503C23.0319 25.3927 23.2623 25.4639 23.5261 25.4639C23.7206 25.4639 23.8951 25.4243 24.0496 25.3452C24.2068 25.2661 24.3361 25.1515 24.4373 25.0012C24.5412 24.8483 24.6091 24.6651 24.6411 24.4516H26.2477C26.221 24.9155 26.0932 25.3241 25.864 25.6774C25.6376 26.028 25.3245 26.3021 24.9249 26.4999C24.5252 26.6976 24.0523 26.7964 23.5061 26.7964Z" fill="#009254"/>
<path d="M29.0882 26.7925C28.6965 26.7925 28.3475 26.7252 28.0411 26.5908C27.7347 26.4537 27.4923 26.2521 27.3137 25.9858C27.1379 25.7169 27.05 25.3821 27.05 24.9814C27.05 24.644 27.1126 24.3606 27.2378 24.1313C27.363 23.9019 27.5335 23.7174 27.7494 23.5777C27.9652 23.438 28.2103 23.3325 28.4847 23.2614C28.7618 23.1902 29.0522 23.1401 29.3559 23.1111C29.7129 23.0742 30.0007 23.0399 30.2192 23.0083C30.4376 22.974 30.5962 22.9239 30.6947 22.858C30.7933 22.7921 30.8426 22.6946 30.8426 22.5654V22.5417C30.8426 22.2913 30.7627 22.0975 30.6028 21.9604C30.4456 21.8234 30.2218 21.7548 29.9314 21.7548C29.625 21.7548 29.3812 21.822 29.2001 21.9565C29.0189 22.0883 28.899 22.2544 28.8404 22.4547L27.2658 22.3282C27.3457 21.9591 27.5029 21.6401 27.7374 21.3713C27.9718 21.0997 28.2742 20.8915 28.6446 20.7465C29.0176 20.5989 29.4492 20.5251 29.9394 20.5251C30.2804 20.5251 30.6068 20.5646 30.9185 20.6437C31.2329 20.7228 31.5113 20.8454 31.7538 21.0114C31.9989 21.1775 32.1921 21.391 32.3333 21.652C32.4745 21.9103 32.5451 22.2201 32.5451 22.5812V26.6778H30.9305V25.8356H30.8826C30.784 26.0254 30.6521 26.1927 30.4869 26.3377C30.3217 26.4801 30.1232 26.5921 29.8915 26.6738C29.6597 26.7529 29.3919 26.7925 29.0882 26.7925ZM29.5757 25.6299C29.8262 25.6299 30.0473 25.5812 30.2391 25.4836C30.431 25.3835 30.5815 25.249 30.6907 25.0803C30.8 24.9116 30.8546 24.7205 30.8546 24.5069V23.8624C30.8013 23.8967 30.728 23.9283 30.6348 23.9573C30.5442 23.9837 30.4416 24.0087 30.3271 24.0324C30.2125 24.0535 30.0979 24.0733 29.9834 24.0918C29.8688 24.1076 29.7649 24.1221 29.6716 24.1352C29.4718 24.1642 29.2973 24.2104 29.1481 24.2736C28.9989 24.3369 28.883 24.4226 28.8004 24.5307C28.7178 24.6361 28.6765 24.7679 28.6765 24.9261C28.6765 25.1554 28.7605 25.3307 28.9283 25.452C29.0988 25.5706 29.3146 25.6299 29.5757 25.6299Z" fill="#009254"/>
<path fill-rule="evenodd" clip-rule="evenodd" d="M35.9593 13.8254C37.4568 15.8967 38.996 15.2177 40.2046 15.4208C40.1876 17.3451 36.7266 19.2172 36.0312 22.5231C35.4099 25.4755 34.0079 28.6952 31.8962 29.8242C30.0158 30.8299 28.8499 30.0371 28.7223 27.9904C28.7105 27.8025 28.7062 27.6167 28.707 27.433H27.708C27.7058 27.5581 27.7058 27.6878 27.708 27.8227C27.7847 32.7387 32.4696 31.5963 34.3521 28.9754C35.264 27.7063 35.9537 26.5024 36.4795 24.8289C37.1082 22.827 36.9261 21.8959 38.1172 20.3436C38.9498 19.2586 40.3593 17.8908 40.8873 16.8269C42.4954 13.5853 38.8357 14.6341 37.9155 14.2306C35.0775 12.9865 36.8063 7.90029 31.6117 8.10375C28.4617 8.22661 29.137 7.11531 27.0388 6.38378C25.3967 5.81132 23.2009 6.52043 21.9414 7.14893C20.2601 7.9878 20.0588 9.26981 18.8102 10.3078C18.0569 10.9337 17.2836 11.4579 16.9124 12.336H18.0939C18.5832 11.6571 19.4158 11.1704 20.0841 10.4768C20.6287 9.91167 20.7925 9.46336 21.3214 8.88831C22.1074 8.03307 23.7878 7.23515 25.449 7.15885C27.3726 7.07005 27.8514 8.37404 29.3863 8.92711C31.3011 9.61725 32.7118 8.26412 34.1447 9.99401C34.9555 10.9734 35.1459 12.699 35.9602 13.8254H35.9593Z" fill="#F6AD2A"/>
<path fill-rule="evenodd" clip-rule="evenodd" d="M36.9726 18.3141C38.0466 15.7906 35.6029 16.6075 34.9881 16.2933C33.0929 15.3247 34.2475 11.3657 30.779 11.5239C28.6756 11.6196 29.1265 10.7544 27.7254 10.185C26.6288 9.73924 25.1627 10.2914 24.3214 10.7803C23.6775 11.1549 23.3586 11.6429 23.0466 12.1433H23.9001C23.9023 12.1403 23.9049 12.1373 23.9075 12.1339C24.4325 11.4683 25.5548 10.8471 26.6636 10.7876C27.948 10.7182 28.2678 11.7334 29.2929 12.164C30.5712 12.7011 31.5132 11.648 32.4703 12.9947C32.5091 13.0495 32.5462 13.1072 32.581 13.168C32.625 13.2447 32.6664 13.3253 32.7056 13.4098C33.0642 14.1832 33.2271 15.2436 33.6824 15.9773C34.6818 17.5899 35.7105 17.0614 36.5169 17.2192C36.5073 18.5245 34.7507 19.7992 33.9922 21.808L34.4109 22.7779C34.5346 22.2063 34.698 21.698 35.1232 21.0514C35.6791 20.207 36.6202 19.1422 36.9726 18.3141Z" fill="#F6AD2A"/>
<path fill-rule="evenodd" clip-rule="evenodd" d="M39.4996 10.385C41.6061 13.1965 43.7723 12.2748 45.4724 12.5503C45.4488 15.1617 40.5788 17.7033 39.6003 22.1895C38.7267 26.1963 36.754 30.5656 33.7827 32.0985C31.2065 33.4275 30.0432 32.3585 29.334 29.8246C29.269 29.5927 28.7976 29.394 28.7985 29.0707L27.8901 28.8534C27.8879 28.9672 27.8875 29.0845 27.8879 29.2039C27.8879 29.2625 27.8888 29.322 27.8897 29.3819C27.9977 36.0536 34.5891 34.5035 37.238 30.9467C38.5207 29.2242 39.4914 27.5904 40.2311 25.3195C41.1156 22.6025 40.8594 21.339 42.535 19.2323C43.7061 17.7594 45.6898 15.9036 46.4326 14.4595C48.6955 10.06 43.5458 11.4834 42.2514 10.9359C38.258 9.24741 40.6904 2.34421 33.3819 2.62009C28.9501 2.78692 29.8999 1.2786 26.9477 0.285843C24.6369 -0.49138 21.548 0.471639 19.7756 1.3243C17.4099 2.46276 17.1267 4.20257 15.37 5.61088C14.3105 6.46052 13.2217 7.17135 12.7002 8.36327H14.3628C15.0511 7.44164 16.2227 6.78167 17.1629 5.83978C17.9296 5.07247 18.1597 4.46423 18.9038 3.68399C20.0096 2.52311 22.374 1.44025 24.711 1.33679C27.4174 1.21609 28.091 2.98608 30.2506 3.73701C32.9444 4.67373 34.9294 2.83736 36.9457 5.18497C38.0867 6.51397 38.3538 8.85642 39.4996 10.385Z" fill="#F6AD2A"/>
<path d="M19.7217 31.5213C20.4977 31.5213 21.1268 30.8989 21.1268 30.1311C21.1268 29.3633 20.4977 28.7409 19.7217 28.7409C18.9457 28.7409 18.3167 29.3633 18.3167 30.1311C18.3167 30.8989 18.9457 31.5213 19.7217 31.5213Z" fill="#F6AD2A"/>
<path d="M23.9334 31.5213C24.7094 31.5213 25.3384 30.8989 25.3384 30.1311C25.3384 29.3633 24.7094 28.7409 23.9334 28.7409C23.1574 28.7409 22.5283 29.3633 22.5283 30.1311C22.5283 30.8989 23.1574 31.5213 23.9334 31.5213Z" fill="#F6AD2A"/>
</svg>
