<svg width="60" height="44" viewBox="0 0 60 44" fill="none" xmlns="http://www.w3.org/2000/svg">
<path d="M7.49462 16.5184C7.42319 16.2694 7.32286 16.0493 7.19361 15.8583C7.06436 15.6638 6.90621 15.5001 6.71914 15.367C6.53547 15.2306 6.3246 15.1265 6.08651 15.0549C5.85182 14.9833 5.59163 14.9474 5.30593 14.9474C4.77193 14.9474 4.30256 15.0805 3.89781 15.3466C3.49647 15.6127 3.18356 15.9999 2.95907 16.5082C2.73459 17.0131 2.62235 17.6306 2.62235 18.3606C2.62235 19.0907 2.73289 19.7115 2.95397 20.2233C3.17505 20.735 3.48797 21.1256 3.89271 21.3951C4.29746 21.6612 4.77533 21.7942 5.32633 21.7942C5.82632 21.7942 6.25317 21.7056 6.6069 21.5282C6.96403 21.3473 7.23613 21.0932 7.4232 20.7657C7.61366 20.4382 7.7089 20.051 7.7089 19.6041L8.15786 19.6706H5.46408V18.0024H9.83637V19.3226C9.83637 20.2437 9.6425 21.0352 9.25476 21.697C8.86702 22.3554 8.33302 22.8637 7.65278 23.2219C6.97253 23.5767 6.19365 23.7541 5.31613 23.7541C4.33657 23.7541 3.47606 23.5375 2.73459 23.1043C1.99312 22.6676 1.41491 22.0484 0.999963 21.2467C0.588414 20.4416 0.382639 19.4864 0.382639 18.3811C0.382639 17.5316 0.505083 16.7743 0.749972 16.109C0.998262 15.4404 1.34519 14.8741 1.79075 14.4101C2.23631 13.9462 2.755 13.5931 3.34682 13.3509C3.93863 13.1087 4.57976 12.9875 5.27021 12.9875C5.86203 12.9875 6.41303 13.0745 6.92321 13.2485C7.4334 13.4191 7.88576 13.6613 8.28031 13.9752C8.67825 14.289 9.00307 14.6626 9.25476 15.0958C9.50645 15.5257 9.66801 15.9999 9.73944 16.5184H7.49462Z" fill="white"/>
<path d="M11.4549 23.6109V15.7508H13.562V17.1222H13.6436C13.7865 16.6344 14.0263 16.266 14.363 16.0169C14.6997 15.7645 15.0875 15.6383 15.5262 15.6383C15.6351 15.6383 15.7524 15.6451 15.8782 15.6587C16.0041 15.6724 16.1146 15.6911 16.2099 15.715V17.6493C16.1078 17.6186 15.9667 17.5913 15.7864 17.5674C15.6061 17.5436 15.4412 17.5316 15.2915 17.5316C14.9718 17.5316 14.6861 17.6016 14.4344 17.7414C14.1861 17.8779 13.9889 18.0689 13.8426 18.3146C13.6997 18.5602 13.6283 18.8433 13.6283 19.164V23.6109H11.4549Z" fill="white"/>
<path d="M20.5094 23.7644C19.717 23.7644 19.0316 23.5955 18.4534 23.2578C17.8786 22.9166 17.4347 22.4424 17.1218 21.8352C16.8089 21.2245 16.6524 20.5167 16.6524 19.7115C16.6524 18.8996 16.8089 18.19 17.1218 17.5828C17.4347 16.9721 17.8786 16.4979 18.4534 16.1602C19.0316 15.8191 19.717 15.6485 20.5094 15.6485C21.3019 15.6485 21.9856 15.8191 22.5604 16.1602C23.1386 16.4979 23.5842 16.9721 23.8971 17.5828C24.21 18.19 24.3664 18.8996 24.3664 19.7115C24.3664 20.5167 24.21 21.2245 23.8971 21.8352C23.5842 22.4424 23.1386 22.9166 22.5604 23.2578C21.9856 23.5955 21.3019 23.7644 20.5094 23.7644ZM20.5196 22.0757C20.8802 22.0757 21.1812 21.9734 21.4227 21.7687C21.6642 21.5606 21.8461 21.2774 21.9686 20.9192C22.0944 20.561 22.1573 20.1533 22.1573 19.6962C22.1573 19.2391 22.0944 18.8314 21.9686 18.4732C21.8461 18.115 21.6642 17.8318 21.4227 17.6237C21.1812 17.4156 20.8802 17.3116 20.5196 17.3116C20.1557 17.3116 19.8496 17.4156 19.6013 17.6237C19.3564 17.8318 19.1711 18.115 19.0452 18.4732C18.9228 18.8314 18.8615 19.2391 18.8615 19.6962C18.8615 20.1533 18.9228 20.561 19.0452 20.9192C19.1711 21.2774 19.3564 21.5606 19.6013 21.7687C19.8496 21.9734 20.1557 22.0757 20.5196 22.0757Z" fill="white"/>
<path d="M27.1291 23.6109L24.9965 15.7508H27.1954L28.4097 21.0318H28.4811L29.7463 15.7508H31.9044L33.1901 21.0011H33.2564L34.4503 15.7508H36.6441L34.5166 23.6109H32.2156L30.8688 18.6676H30.7718L29.4249 23.6109H27.1291Z" fill="white"/>
<path d="M2.36726 34.5243H0L3.60701 24.0442H6.45384L10.0558 34.5243H7.68849L5.07124 26.4391H4.98961L2.36726 34.5243ZM2.21931 30.4049H7.81094V32.1345H2.21931V30.4049Z" fill="white"/>
<path d="M15.3464 26.6642V28.3017H10.5098V26.6642H15.3464ZM11.6169 34.5243V26.0962C11.6169 25.5265 11.7275 25.054 11.9485 24.6788C12.173 24.3035 12.4791 24.0221 12.8669 23.8344C13.2546 23.6468 13.6951 23.553 14.1883 23.553C14.5216 23.553 14.826 23.5786 15.1015 23.6297C15.3804 23.6809 15.5879 23.727 15.7239 23.7679L15.3362 25.4054C15.2511 25.3781 15.1457 25.3525 15.0199 25.3286C14.8974 25.3048 14.7716 25.2928 14.6423 25.2928C14.3226 25.2928 14.0998 25.3679 13.974 25.518C13.8481 25.6647 13.7852 25.8711 13.7852 26.1372V34.5243H11.6169Z" fill="white"/>
<path d="M16.6741 34.5243V26.6642H18.7812V28.0356H18.8628C19.0057 27.5478 19.2455 27.1794 19.5822 26.9303C19.9189 26.6779 20.3066 26.5517 20.7454 26.5517C20.8542 26.5517 20.9716 26.5585 21.0974 26.5721C21.2233 26.5858 21.3338 26.6045 21.4291 26.6284V28.5627C21.327 28.532 21.1859 28.5047 21.0056 28.4808C20.8253 28.457 20.6604 28.445 20.5107 28.445C20.191 28.445 19.9053 28.515 19.6536 28.6548C19.4053 28.7913 19.208 28.9823 19.0618 29.228C18.9189 29.4736 18.8475 29.7567 18.8475 30.0774V34.5243H16.6741Z" fill="white"/>
<path d="M22.5527 34.5243V26.6642H24.7261V34.5243H22.5527ZM23.6445 25.651C23.3214 25.651 23.0442 25.5436 22.8129 25.3286C22.5851 25.1103 22.4711 24.8493 22.4711 24.5457C22.4711 24.2455 22.5851 23.9879 22.8129 23.773C23.0442 23.5547 23.3214 23.4455 23.6445 23.4455C23.9677 23.4455 24.2432 23.5547 24.471 23.773C24.7023 23.9879 24.818 24.2455 24.818 24.5457C24.818 24.8493 24.7023 25.1103 24.471 25.3286C24.2432 25.5436 23.9677 25.651 23.6445 25.651Z" fill="white"/>
<path d="M30.0078 34.6778C29.2051 34.6778 28.5147 34.5072 27.9365 34.166C27.3617 33.8215 26.9195 33.3439 26.61 32.7332C26.3039 32.1226 26.1508 31.4198 26.1508 30.6249C26.1508 29.8198 26.3056 29.1137 26.6151 28.5064C26.928 27.8958 27.3719 27.4199 27.9467 27.0787C28.5215 26.7342 29.2051 26.5619 29.9976 26.5619C30.6813 26.5619 31.2799 26.6864 31.7935 26.9354C32.3071 27.1845 32.7135 27.5342 33.0128 27.9845C33.3121 28.4348 33.4771 28.9636 33.5077 29.5708H31.4567C31.3989 29.1785 31.2459 28.8629 30.9976 28.6241C30.7527 28.3819 30.4313 28.2608 30.0333 28.2608C29.6966 28.2608 29.4024 28.3529 29.1507 28.5371C28.9024 28.7179 28.7085 28.9823 28.5691 29.3303C28.4296 29.6783 28.3599 30.0996 28.3599 30.5942C28.3599 31.0957 28.4279 31.5222 28.564 31.8735C28.7034 32.2249 28.899 32.4927 29.1507 32.6769C29.4024 32.8612 29.6966 32.9533 30.0333 32.9533C30.2816 32.9533 30.5044 32.9021 30.7017 32.7998C30.9023 32.6974 31.0673 32.549 31.1966 32.3546C31.3292 32.1567 31.4159 31.9196 31.4567 31.6433H33.5077C33.4737 32.2437 33.3104 32.7725 33.0179 33.2296C32.7288 33.6833 32.3292 34.0381 31.819 34.294C31.3088 34.5498 30.7051 34.6778 30.0078 34.6778Z" fill="white"/>
<path d="M37.1338 34.6727C36.6339 34.6727 36.1883 34.5857 35.7971 34.4117C35.406 34.2343 35.0965 33.9733 34.8686 33.6287C34.6441 33.2808 34.5319 32.8475 34.5319 32.329C34.5319 31.8923 34.6118 31.5256 34.7717 31.2288C34.9315 30.932 35.1492 30.6932 35.4247 30.5124C35.7002 30.3316 36.0131 30.1951 36.3635 30.103C36.7172 30.0109 37.0879 29.9461 37.4757 29.9085C37.9314 29.8608 38.2988 29.8164 38.5777 29.7755C38.8566 29.7311 39.0589 29.6663 39.1848 29.581C39.3106 29.4958 39.3735 29.3695 39.3735 29.2024V29.1717C39.3735 28.8476 39.2715 28.5968 39.0674 28.4194C38.8668 28.242 38.5811 28.1533 38.2103 28.1533C37.8192 28.1533 37.508 28.2403 37.2767 28.4143C37.0454 28.5849 36.8923 28.7998 36.8175 29.0591L34.8074 28.8953C34.9094 28.4177 35.1101 28.0049 35.4094 27.657C35.7087 27.3056 36.0948 27.0361 36.5675 26.8485C37.0437 26.6574 37.5947 26.5619 38.2205 26.5619C38.6559 26.5619 39.0725 26.6131 39.4705 26.7154C39.8718 26.8178 40.2273 26.9764 40.5368 27.1913C40.8497 27.4062 41.0963 27.6826 41.2765 28.0203C41.4568 28.3546 41.5469 28.7555 41.5469 29.2228V34.5243H39.4858V33.4343H39.4246C39.2987 33.6799 39.1304 33.8965 38.9195 34.0842C38.7086 34.2684 38.4552 34.4134 38.1593 34.5191C37.8634 34.6215 37.5216 34.6727 37.1338 34.6727ZM37.7563 33.1682C38.076 33.1682 38.3583 33.1051 38.6032 32.9789C38.8481 32.8492 39.0402 32.6752 39.1797 32.4569C39.3191 32.2386 39.3889 31.9912 39.3889 31.7149V30.8808C39.3208 30.9252 39.2273 30.9661 39.1082 31.0036C38.9926 31.0377 38.8617 31.0701 38.7154 31.1008C38.5692 31.1281 38.4229 31.1537 38.2766 31.1776C38.1304 31.1981 37.9977 31.2168 37.8787 31.2339C37.6236 31.2714 37.4008 31.3311 37.2104 31.413C37.0199 31.4949 36.8719 31.6057 36.7665 31.7456C36.6611 31.8821 36.6083 32.0526 36.6083 32.2573C36.6083 32.5541 36.7155 32.781 36.9298 32.9379C37.1474 33.0914 37.4229 33.1682 37.7563 33.1682Z" fill="white"/>
<path fill-rule="evenodd" clip-rule="evenodd" d="M45.9055 17.8917C47.8171 20.5722 49.7821 19.6936 51.3249 19.9563C51.3033 22.4466 46.8849 24.8694 45.9973 29.1476C45.2041 32.9684 43.4143 37.135 40.7185 38.596C38.318 39.8975 36.8297 38.8716 36.6667 36.2229C36.6517 35.9797 36.6461 35.7392 36.6472 35.5016H35.3719C35.3691 35.6634 35.3691 35.8313 35.3719 36.0059C35.4698 42.3677 41.4505 40.8894 43.8537 37.4976C45.0178 35.8553 45.8983 34.2972 46.5696 32.1316C47.3721 29.5409 47.1397 28.3359 48.6603 26.3271C49.7231 24.9229 51.5224 23.1529 52.1965 21.7761C54.2494 17.581 49.5774 18.9382 48.4028 18.4161C44.7798 16.8061 46.9867 10.2239 40.3553 10.4872C36.3341 10.6462 37.1962 9.20807 34.5176 8.26138C32.4213 7.52055 29.6182 8.43823 28.0102 9.25158C25.8639 10.3372 25.607 11.9962 24.0129 13.3396C23.0513 14.1496 22.0641 14.8279 21.5902 15.9643H23.0986C23.7232 15.0857 24.786 14.4558 25.6392 13.5582C26.3345 12.8269 26.5436 12.2467 27.2188 11.5025C28.2221 10.3958 30.3673 9.36315 32.4881 9.26441C34.9436 9.14949 35.5549 10.837 37.5143 11.5527C39.9588 12.4459 41.7597 10.6948 43.589 12.9334C44.624 14.2009 44.8671 16.434 45.9066 17.8917H45.9055Z" fill="white"/>
<path fill-rule="evenodd" clip-rule="evenodd" d="M47.1992 23.7006C48.5702 20.4349 45.4505 21.4921 44.6658 21.0854C42.2464 19.8319 43.7203 14.7085 39.2925 14.9133C36.6072 15.0371 37.1829 13.9175 35.3942 13.1805C33.9942 12.6037 32.1227 13.3183 31.0487 13.951C30.2267 14.4357 29.8195 15.0672 29.4213 15.7149H30.5109C30.5136 15.711 30.517 15.7071 30.5203 15.7026C31.1905 14.8413 32.6232 14.0374 34.0387 13.9604C35.6784 13.8706 36.0866 15.1844 37.3953 15.7417C39.0272 16.4368 40.2296 15.0739 41.4516 16.8167C41.5011 16.8875 41.5483 16.9623 41.5928 17.0409C41.649 17.1402 41.7019 17.2445 41.7519 17.3539C42.2097 18.3547 42.4177 19.727 42.9989 20.6765C44.2748 22.7634 45.5879 22.0795 46.6174 22.2837C46.6052 23.9729 44.3626 25.6225 43.3943 28.2221L43.9288 29.4773C44.0868 28.7375 44.2953 28.0798 44.8382 27.243C45.5479 26.1502 46.7492 24.7723 47.1992 23.7006Z" fill="white"/>
<path fill-rule="evenodd" clip-rule="evenodd" d="M50.4251 13.4394C53.1142 17.0778 55.8796 15.8851 58.0498 16.2415C58.0198 19.621 51.8027 22.9102 50.5536 28.7158C49.4384 33.9011 46.92 39.5555 43.1268 41.5393C39.8381 43.2592 38.3531 41.8757 37.4476 38.5966C37.3647 38.2965 36.7629 38.0393 36.7641 37.6209L35.6044 37.3397C35.6016 37.487 35.6011 37.6387 35.6016 37.7933C35.6016 37.8691 35.6027 37.9461 35.6039 38.0237C35.7418 46.6576 44.1563 44.6516 47.5379 40.0487C49.1753 37.8195 50.4145 35.7052 51.3589 32.7664C52.488 29.2502 52.1609 27.6151 54.3 24.8889C55.795 22.9827 58.3273 20.5811 59.2756 18.7123C62.1645 13.0188 55.5904 14.8608 53.9379 14.1524C48.8399 11.9672 51.9451 3.03368 42.6151 3.39071C36.9576 3.6066 38.1701 1.65466 34.4014 0.369915C31.4514 -0.635904 27.508 0.610356 25.2455 1.7138C22.2254 3.1871 21.8639 5.43862 19.6213 7.26114C18.2687 8.36068 16.8788 9.28058 16.213 10.8231H18.3354C19.2142 9.63035 20.7098 8.77628 21.91 7.55736C22.8889 6.56438 23.1826 5.77724 24.1325 4.76751C25.5441 3.2652 28.5626 1.86385 31.5459 1.72997C35.001 1.57377 35.8608 3.86434 38.6178 4.83613C42.0567 6.04836 44.5907 3.67187 47.1647 6.70997C48.6214 8.42984 48.9629 11.4613 50.4256 13.4394H50.4251Z" fill="white"/>
<path d="M25.1766 40.7923C26.1672 40.7923 26.9703 39.9868 26.9703 38.9932C26.9703 37.9996 26.1672 37.1941 25.1766 37.1941C24.1859 37.1941 23.3829 37.9996 23.3829 38.9932C23.3829 39.9868 24.1859 40.7923 25.1766 40.7923Z" fill="white"/>
<path d="M30.5532 40.7923C31.5438 40.7923 32.3469 39.9868 32.3469 38.9932C32.3469 37.9996 31.5438 37.1941 30.5532 37.1941C29.5625 37.1941 28.7595 37.9996 28.7595 38.9932C28.7595 39.9868 29.5625 40.7923 30.5532 40.7923Z" fill="white"/>
</svg>
